# This file uses centimeters as units for non-parametric coordinates.

g default
v 4.960267 -1.637470 -114.577648
v 10.096032 -1.637470 -114.577648
v 4.960267 3.498331 -114.577648
v 10.096032 3.498331 -114.577648
v 4.960267 8.634125 -114.577648
v 10.096032 8.634125 -114.577648
v 4.960267 13.769883 -114.577648
v 10.096032 13.769883 -114.577648
v 4.960267 18.905684 -114.577648
v 10.096032 18.905684 -114.577648
v 4.960267 24.041478 -114.577648
v 10.096032 24.041478 -114.577648
v 4.960267 29.177273 -114.577648
v 10.096032 29.177273 -114.577648
v 4.960267 29.177273 -119.713442
v 10.096032 29.177273 -119.713442
v 4.960267 29.177273 -124.849236
v 10.096032 29.177273 -124.849236
v 4.960267 29.177273 -129.985030
v 10.096032 29.177273 -129.985030
v 4.960267 29.177273 -135.120795
v 10.096032 29.177273 -135.120795
v 4.960267 29.177273 -140.256589
v 10.096032 29.177273 -140.256589
v 4.960267 29.177273 -145.392354
v 10.096032 29.177273 -145.392354
v 4.960267 24.041478 -145.392354
v 10.096032 24.041478 -145.392354
v 4.960267 18.905684 -145.392354
v 10.096032 18.905684 -145.392354
v 4.960267 13.769883 -145.392354
v 10.096032 13.769883 -145.392354
v 4.960267 8.634125 -145.392354
v 10.096032 8.634125 -145.392354
v 4.960267 3.498331 -145.392354
v 10.096032 3.498331 -145.392354
v 4.960267 -1.637470 -145.392354
v 10.096032 -1.637470 -145.392354
v 4.960267 -1.637470 -140.256589
v 10.096032 -1.637470 -140.256589
v 4.960267 -1.637470 -135.120795
v 10.096032 -1.637470 -135.120795
v 4.960267 -1.637470 -129.985001
v 10.096032 -1.637470 -129.985001
v 4.960267 -1.637470 -124.849236
v 10.096032 -1.637470 -124.849236
v 4.960267 -1.637470 -119.713442
v 10.096032 -1.637470 -119.713442
v 5.235967 0.016882 -116.232000
v 5.235967 4.601218 -116.232000
v 9.820333 0.016882 -116.232000
v 9.820333 4.601218 -116.232000
v 5.235967 9.185554 -116.232000
v 9.820333 9.185554 -116.232000
v 5.235967 13.769883 -116.232000
v 9.820333 13.769883 -116.232000
v 5.235967 18.354248 -116.232000
v 9.820333 18.354248 -116.232000
v 5.235967 22.938584 -116.232000
v 9.820333 22.938584 -116.232000
v 5.235967 27.522920 -116.232000
v 9.820333 27.522920 -116.232000
v 5.235967 27.522920 -120.816329
v 9.820333 27.522920 -120.816329
v 5.235967 27.522920 -125.400672
v 9.820333 27.522920 -125.400672
v 5.235967 27.522920 -129.985030
v 9.820333 27.522920 -129.985030
v 5.235967 27.522920 -134.569374
v 9.820333 27.522920 -134.569374
v 5.235967 27.522920 -139.153702
v 9.820333 27.522920 -139.153702
v 5.235967 27.522920 -143.738046
v 9.820333 27.522920 -143.738046
v 5.235967 22.938584 -143.738046
v 9.820333 22.938584 -143.738046
v 5.235967 18.354248 -143.738046
v 9.820333 18.354248 -143.738046
v 5.235967 13.769883 -143.738046
v 9.820333 13.769883 -143.738046
v 5.235967 9.185554 -143.738046
v 9.820333 9.185554 -143.738046
v 5.235967 4.601218 -143.738046
v 9.820333 4.601218 -143.738046
v 5.235967 0.016882 -143.738046
v 9.820333 0.016882 -143.738046
v 5.235967 0.016882 -139.153702
v 9.820333 0.016882 -139.153702
v 5.235967 0.016882 -134.569374
v 9.820333 0.016882 -134.569374
v 5.235967 0.016882 -129.985001
v 9.820333 0.016882 -129.985001
v 5.235967 0.016882 -125.400672
v 9.820333 0.016882 -125.400672
v 5.235967 0.016882 -120.816329
v 9.820333 0.016882 -120.816329
vt 0.071191 0.032705
vt 0.285596 0.032705
vt 0.285596 0.105136
vt 0.071191 0.105136
vt 0.285596 0.177568
vt 0.071191 0.177568
vt 0.285596 0.250000
vt 0.071191 0.250000
vt 0.285596 0.322432
vt 0.071191 0.322432
vt 0.285596 0.394864
vt 0.071191 0.394864
vt 0.285596 0.467295
vt 0.071191 0.467295
vt 0.285596 0.032705
vt 0.500000 0.032705
vt 0.500000 0.105137
vt 0.285596 0.105137
vt 0.500000 0.177568
vt 0.285596 0.177568
vt 0.500000 0.250000
vt 0.285596 0.250000
vt 0.500000 0.322432
vt 0.285596 0.322432
vt 0.500000 0.394864
vt 0.285596 0.394864
vt 0.500000 0.467295
vt 0.285596 0.467295
vt 0.500000 0.032705
vt 0.714404 0.032705
vt 0.714404 0.105137
vt 0.500000 0.105137
vt 0.714404 0.177568
vt 0.500000 0.177568
vt 0.714404 0.250000
vt 0.500000 0.250000
vt 0.714404 0.322432
vt 0.500000 0.322432
vt 0.714404 0.394863
vt 0.500000 0.394863
vt 0.714404 0.467295
vt 0.500000 0.467295
vt 0.714404 0.032705
vt 0.928809 0.032705
vt 0.928809 0.105136
vt 0.714404 0.105136
vt 0.928809 0.177568
vt 0.714404 0.177568
vt 0.928809 0.250000
vt 0.714404 0.250000
vt 0.928809 0.322432
vt 0.714404 0.322432
vt 0.928809 0.394863
vt 0.714404 0.394863
vt 0.928809 0.467295
vt 0.714404 0.467295
vt 0.993512 0.001938
vt 0.993512 0.084625
vt 0.940522 0.102382
vt 0.940522 0.028573
vt 0.170992 0.998062
vt 0.006488 0.998062
vt 0.059478 0.971427
vt 0.206318 0.971427
vt 0.993512 0.167313
vt 0.940522 0.176191
vt 0.335496 0.998062
vt 0.353159 0.971427
vt 0.993512 0.250000
vt 0.940522 0.250000
vt 0.500000 0.998062
vt 0.500000 0.971427
vt 0.993512 0.332688
vt 0.940522 0.323809
vt 0.664504 0.998062
vt 0.646841 0.971427
vt 0.993512 0.415375
vt 0.940522 0.397618
vt 0.829008 0.998062
vt 0.793682 0.971427
vt 0.993512 0.498062
vt 0.940522 0.471427
vt 0.993512 0.998062
vt 0.940522 0.971427
vt 0.829008 0.498062
vt 0.793681 0.471427
vt 0.993512 0.915375
vt 0.940522 0.897618
vt 0.664504 0.498062
vt 0.646841 0.471427
vt 0.993512 0.832687
vt 0.940522 0.823809
vt 0.500000 0.498062
vt 0.500000 0.471427
vt 0.993512 0.750000
vt 0.940522 0.750000
vt 0.335496 0.498062
vt 0.353159 0.471427
vt 0.993512 0.667313
vt 0.940522 0.676191
vt 0.170992 0.498062
vt 0.206319 0.471427
vt 0.993512 0.584625
vt 0.940522 0.602382
vt 0.006488 0.498062
vt 0.059478 0.471427
vt 0.993512 0.501938
vt 0.940522 0.528573
vt 0.006488 0.415375
vt 0.059478 0.397618
vt 0.829008 0.501938
vt 0.793682 0.528573
vt 0.006488 0.332687
vt 0.059478 0.323809
vt 0.664504 0.501938
vt 0.646841 0.528573
vt 0.006488 0.250000
vt 0.059478 0.250000
vt 0.500000 0.501938
vt 0.500000 0.528573
vt 0.006488 0.167312
vt 0.059478 0.176191
vt 0.335496 0.501938
vt 0.353159 0.528573
vt 0.006488 0.084625
vt 0.059478 0.102382
vt 0.170992 0.501938
vt 0.206318 0.528573
vt 0.006488 0.001938
vt 0.059478 0.028573
vt 0.006488 0.501938
vt 0.059478 0.528573
vt 0.170992 0.001938
vt 0.206319 0.028573
vt 0.006488 0.584625
vt 0.059478 0.602382
vt 0.335496 0.001938
vt 0.353159 0.028573
vt 0.006488 0.667313
vt 0.059478 0.676191
vt 0.500000 0.001938
vt 0.500000 0.028573
vt 0.006488 0.750000
vt 0.059478 0.750000
vt 0.664504 0.001938
vt 0.646841 0.028573
vt 0.006488 0.832688
vt 0.059478 0.823809
vt 0.829008 0.001938
vt 0.793681 0.028573
vt 0.006488 0.915375
vt 0.059478 0.897618
vt 0.067586 0.894864
vt 0.067586 0.822432
vt 0.283793 0.822432
vt 0.283793 0.894864
vt 0.067586 0.750000
vt 0.283793 0.750000
vt 0.067586 0.677568
vt 0.283793 0.677568
vt 0.067586 0.605136
vt 0.283793 0.605136
vt 0.067586 0.532705
vt 0.283793 0.532705
vt 0.283793 0.967295
vt 0.283793 0.894863
vt 0.500000 0.894863
vt 0.500000 0.967295
vt 0.283793 0.822432
vt 0.500000 0.822432
vt 0.283793 0.750000
vt 0.500000 0.750000
vt 0.283793 0.677568
vt 0.500000 0.677568
vt 0.283793 0.605137
vt 0.500000 0.605137
vt 0.283793 0.532705
vt 0.500000 0.532705
vt 0.500000 0.967295
vt 0.500000 0.894863
vt 0.716207 0.894863
vt 0.716207 0.967295
vt 0.500000 0.822432
vt 0.716207 0.822432
vt 0.500000 0.750000
vt 0.716207 0.750000
vt 0.500000 0.677568
vt 0.716207 0.677568
vt 0.500000 0.605137
vt 0.716207 0.605137
vt 0.500000 0.532705
vt 0.716207 0.532705
vt 0.716207 0.967295
vt 0.716207 0.894863
vt 0.932414 0.894863
vt 0.932414 0.967295
vt 0.716207 0.822432
vt 0.932414 0.822432
vt 0.716207 0.750000
vt 0.932414 0.750000
vt 0.716207 0.677568
vt 0.932414 0.677568
vt 0.716207 0.605137
vt 0.932414 0.605137
vt 0.716207 0.532705
vt 0.932414 0.532705
vt 0.067586 0.967295
vt 0.283793 0.967295
vn 0.000000 0.000000 1.000000
vn 0.000000 0.000000 1.000000
vn 0.000000 0.000000 1.000000
vn 0.000000 0.000000 1.000000
vn 0.000000 0.000000 1.000000
vn 0.000000 0.000000 1.000000
vn 0.000000 0.000000 1.000000
vn 0.000000 0.000000 1.000000
vn 0.000000 0.000000 1.000000
vn 0.000000 0.000000 1.000000
vn 0.000000 0.000000 1.000000
vn 0.000000 0.000000 1.000000
vn 0.000000 0.000000 1.000000
vn 0.000000 0.000000 1.000000
vn 0.000000 0.000000 1.000000
vn 0.000000 0.000000 1.000000
vn 0.000000 0.000000 1.000000
vn 0.000000 0.000000 1.000000
vn 0.000000 0.000000 1.000000
vn 0.000000 0.000000 1.000000
vn 0.000000 0.000000 1.000000
vn 0.000000 0.000000 1.000000
vn 0.000000 0.000000 1.000000
vn 0.000000 0.000000 1.000000
vn 0.000000 1.000000 0.000000
vn 0.000000 1.000000 0.000000
vn 0.000000 1.000000 0.000000
vn 0.000000 1.000000 0.000000
vn 0.000000 1.000000 0.000000
vn 0.000000 1.000000 0.000000
vn 0.000000 1.000000 0.000000
vn 0.000000 1.000000 0.000000
vn 0.000000 1.000000 0.000000
vn 0.000000 1.000000 0.000000
vn 0.000000 1.000000 0.000000
vn 0.000000 1.000000 0.000000
vn 0.000000 1.000000 0.000000
vn 0.000000 1.000000 0.000000
vn 0.000000 1.000000 0.000000
vn 0.000000 1.000000 0.000000
vn 0.000000 1.000000 0.000000
vn 0.000000 1.000000 0.000000
vn 0.000000 1.000000 0.000000
vn 0.000000 1.000000 0.000000
vn 0.000000 1.000000 0.000000
vn 0.000000 1.000000 0.000000
vn 0.000000 1.000000 0.000000
vn 0.000000 1.000000 0.000000
vn 0.000000 0.000000 -1.000000
vn 0.000000 0.000000 -1.000000
vn 0.000000 0.000000 -1.000000
vn 0.000000 0.000000 -1.000000
vn 0.000000 0.000000 -1.000000
vn 0.000000 0.000000 -1.000000
vn 0.000000 0.000000 -1.000000
vn 0.000000 0.000000 -1.000000
vn 0.000000 0.000000 -1.000000
vn 0.000000 0.000000 -1.000000
vn 0.000000 0.000000 -1.000000
vn 0.000000 0.000000 -1.000000
vn 0.000000 0.000000 -1.000000
vn 0.000000 0.000000 -1.000000
vn 0.000000 0.000000 -1.000000
vn 0.000000 0.000000 -1.000000
vn 0.000000 0.000000 -1.000000
vn 0.000000 0.000000 -1.000000
vn 0.000000 0.000000 -1.000000
vn 0.000000 0.000000 -1.000000
vn 0.000000 0.000000 -1.000000
vn 0.000000 0.000000 -1.000000
vn 0.000000 0.000000 -1.000000
vn 0.000000 0.000000 -1.000000
vn 0.000000 -1.000000 0.000000
vn 0.000000 -1.000000 0.000000
vn 0.000000 -1.000000 0.000000
vn 0.000000 -1.000000 0.000000
vn 0.000000 -1.000000 0.000000
vn 0.000000 -1.000000 0.000000
vn 0.000000 -1.000000 0.000000
vn 0.000000 -1.000000 0.000000
vn 0.000000 -1.000000 0.000000
vn 0.000000 -1.000000 0.000000
vn 0.000000 -1.000000 0.000000
vn 0.000000 -1.000000 0.000000
vn 0.000000 -1.000000 0.000000
vn 0.000000 -1.000000 0.000000
vn 0.000000 -1.000000 0.000000
vn 0.000000 -1.000000 0.000000
vn 0.000000 -1.000000 0.000000
vn 0.000000 -1.000000 0.000000
vn 0.000000 -1.000000 0.000000
vn 0.000000 -1.000000 0.000000
vn 0.000000 -1.000000 0.000000
vn 0.000000 -1.000000 0.000000
vn 0.000000 -1.000000 0.000000
vn 0.000000 -1.000000 0.000000
vn -0.986394 0.000000 -0.164399
vn -0.986394 0.000000 -0.164399
vn -0.986394 0.000000 -0.164399
vn -0.986394 0.000000 -0.164399
vn 0.986394 0.000000 -0.164399
vn 0.986394 0.000000 -0.164399
vn 0.986394 0.000000 -0.164399
vn 0.986394 0.000000 -0.164399
vn -0.986394 0.000000 -0.164399
vn -0.986394 0.000000 -0.164399
vn -0.986394 0.000000 -0.164399
vn -0.986394 0.000000 -0.164399
vn 0.986394 0.000000 -0.164399
vn 0.986394 0.000000 -0.164399
vn 0.986394 0.000000 -0.164399
vn 0.986394 0.000000 -0.164399
vn -0.986394 0.000000 -0.164399
vn -0.986394 0.000000 -0.164399
vn -0.986394 0.000000 -0.164399
vn -0.986394 0.000000 -0.164399
vn 0.986394 0.000000 -0.164399
vn 0.986394 0.000000 -0.164399
vn 0.986394 0.000000 -0.164399
vn 0.986394 0.000000 -0.164399
vn -0.986394 0.000000 -0.164399
vn -0.986394 0.000000 -0.164399
vn -0.986394 0.000000 -0.164399
vn -0.986394 0.000000 -0.164399
vn 0.986394 0.000000 -0.164399
vn 0.986394 0.000000 -0.164399
vn 0.986394 0.000000 -0.164399
vn 0.986394 0.000000 -0.164399
vn -0.986394 0.000000 -0.164399
vn -0.986394 0.000000 -0.164399
vn -0.986394 0.000000 -0.164399
vn -0.986394 0.000000 -0.164399
vn 0.986394 0.000000 -0.164399
vn 0.986394 0.000000 -0.164399
vn 0.986394 0.000000 -0.164399
vn 0.986394 0.000000 -0.164399
vn -0.986394 0.000000 -0.164399
vn -0.986394 0.000000 -0.164399
vn -0.986394 0.000000 -0.164399
vn -0.986394 0.000000 -0.164399
vn 0.986394 0.000000 -0.164399
vn 0.986394 0.000000 -0.164399
vn 0.986394 0.000000 -0.164399
vn 0.986394 0.000000 -0.164399
vn -0.986394 -0.164398 0.000000
vn -0.986394 -0.164398 0.000000
vn -0.986394 -0.164398 0.000000
vn -0.986394 -0.164398 0.000000
vn 0.986394 -0.164399 0.000000
vn 0.986394 -0.164399 0.000000
vn 0.986394 -0.164399 0.000000
vn 0.986394 -0.164399 0.000000
vn -0.986394 -0.164398 0.000000
vn -0.986394 -0.164398 0.000000
vn -0.986394 -0.164398 0.000000
vn -0.986394 -0.164398 0.000000
vn 0.986394 -0.164399 0.000000
vn 0.986394 -0.164399 0.000000
vn 0.986394 -0.164399 0.000000
vn 0.986394 -0.164399 0.000000
vn -0.986394 -0.164398 0.000000
vn -0.986394 -0.164398 0.000000
vn -0.986394 -0.164398 0.000000
vn -0.986394 -0.164398 0.000000
vn 0.986394 -0.164399 0.000000
vn 0.986394 -0.164399 0.000000
vn 0.986394 -0.164399 0.000000
vn 0.986394 -0.164399 0.000000
vn -0.986394 -0.164399 0.000000
vn -0.986394 -0.164399 0.000000
vn -0.986394 -0.164399 0.000000
vn -0.986394 -0.164399 0.000000
vn 0.986394 -0.164398 0.000000
vn 0.986394 -0.164398 0.000000
vn 0.986394 -0.164398 0.000000
vn 0.986394 -0.164398 0.000000
vn -0.986394 -0.164398 0.000000
vn -0.986394 -0.164398 0.000000
vn -0.986394 -0.164398 0.000000
vn -0.986394 -0.164398 0.000000
vn 0.986394 -0.164398 0.000000
vn 0.986394 -0.164398 0.000000
vn 0.986394 -0.164398 0.000000
vn 0.986394 -0.164398 0.000000
vn -0.986394 -0.164398 0.000000
vn -0.986394 -0.164398 0.000000
vn -0.986394 -0.164398 0.000000
vn -0.986394 -0.164398 0.000000
vn 0.986394 -0.164399 0.000000
vn 0.986394 -0.164399 0.000000
vn 0.986394 -0.164399 0.000000
vn 0.986394 -0.164399 0.000000
vn -0.986394 0.000000 0.164399
vn -0.986394 0.000000 0.164399
vn -0.986394 0.000000 0.164399
vn -0.986394 0.000000 0.164399
vn 0.986394 0.000000 0.164399
vn 0.986394 0.000000 0.164399
vn 0.986394 0.000000 0.164399
vn 0.986394 0.000000 0.164399
vn -0.986394 0.000000 0.164399
vn -0.986394 0.000000 0.164399
vn -0.986394 0.000000 0.164399
vn -0.986394 0.000000 0.164399
vn 0.986394 0.000000 0.164399
vn 0.986394 0.000000 0.164399
vn 0.986394 0.000000 0.164399
vn 0.986394 0.000000 0.164399
vn -0.986394 0.000000 0.164399
vn -0.986394 0.000000 0.164399
vn -0.986394 0.000000 0.164399
vn -0.986394 0.000000 0.164399
vn 0.986394 0.000000 0.164399
vn 0.986394 0.000000 0.164399
vn 0.986394 0.000000 0.164399
vn 0.986394 0.000000 0.164399
vn -0.986394 0.000000 0.164399
vn -0.986394 0.000000 0.164399
vn -0.986394 0.000000 0.164399
vn -0.986394 0.000000 0.164399
vn 0.986394 0.000000 0.164399
vn 0.986394 0.000000 0.164399
vn 0.986394 0.000000 0.164399
vn 0.986394 0.000000 0.164399
vn -0.986394 0.000000 0.164399
vn -0.986394 0.000000 0.164399
vn -0.986394 0.000000 0.164399
vn -0.986394 0.000000 0.164399
vn 0.986394 0.000000 0.164399
vn 0.986394 0.000000 0.164399
vn 0.986394 0.000000 0.164399
vn 0.986394 0.000000 0.164399
vn -0.986394 0.000000 0.164399
vn -0.986394 0.000000 0.164399
vn -0.986394 0.000000 0.164399
vn -0.986394 0.000000 0.164399
vn 0.986394 0.000000 0.164399
vn 0.986394 0.000000 0.164399
vn 0.986394 0.000000 0.164399
vn 0.986394 0.000000 0.164399
vn -0.986394 0.164399 0.000000
vn -0.986394 0.164399 0.000000
vn -0.986394 0.164399 0.000000
vn -0.986394 0.164399 0.000000
vn 0.986394 0.164399 0.000000
vn 0.986394 0.164399 0.000000
vn 0.986394 0.164399 0.000000
vn 0.986394 0.164399 0.000000
vn -0.986394 0.164399 0.000000
vn -0.986394 0.164399 0.000000
vn -0.986394 0.164399 0.000000
vn -0.986394 0.164399 0.000000
vn 0.986394 0.164399 0.000000
vn 0.986394 0.164399 0.000000
vn 0.986394 0.164399 0.000000
vn 0.986394 0.164399 0.000000
vn -0.986394 0.164399 0.000000
vn -0.986394 0.164399 0.000000
vn -0.986394 0.164399 0.000000
vn -0.986394 0.164399 0.000000
vn 0.986394 0.164399 0.000000
vn 0.986394 0.164399 0.000000
vn 0.986394 0.164399 0.000000
vn 0.986394 0.164399 0.000000
vn -0.986394 0.164399 0.000000
vn -0.986394 0.164399 0.000000
vn -0.986394 0.164399 0.000000
vn -0.986394 0.164399 0.000000
vn 0.986394 0.164399 0.000000
vn 0.986394 0.164399 0.000000
vn 0.986394 0.164399 0.000000
vn 0.986394 0.164399 0.000000
vn -0.986394 0.164399 0.000000
vn -0.986394 0.164399 0.000000
vn -0.986394 0.164399 0.000000
vn -0.986394 0.164399 0.000000
vn 0.986394 0.164399 0.000000
vn 0.986394 0.164399 0.000000
vn 0.986394 0.164399 0.000000
vn 0.986394 0.164399 0.000000
vn -0.986394 0.164398 0.000000
vn -0.986394 0.164399 0.000000
vn -0.986394 0.164398 0.000000
vn -0.986394 0.164399 0.000000
vn 0.986394 0.164399 0.000000
vn 0.986394 0.164399 0.000000
vn 0.986394 0.164399 0.000000
vn 0.986394 0.164399 0.000000
vn 0.000000 0.000000 -1.000000
vn 0.000000 0.000000 -1.000000
vn 0.000000 0.000000 -1.000000
vn 0.000000 0.000000 -1.000000
vn 0.000000 0.000000 -1.000000
vn 0.000000 0.000000 -1.000000
vn 0.000000 0.000000 -1.000000
vn 0.000000 0.000000 -1.000000
vn 0.000000 0.000000 -1.000000
vn 0.000000 0.000000 -1.000000
vn 0.000000 0.000000 -1.000000
vn 0.000000 0.000000 -1.000000
vn 0.000000 0.000000 -1.000000
vn 0.000000 0.000000 -1.000000
vn 0.000000 0.000000 -1.000000
vn 0.000000 0.000000 -1.000000
vn 0.000000 0.000000 -1.000000
vn 0.000000 0.000000 -1.000000
vn 0.000000 0.000000 -1.000000
vn 0.000000 0.000000 -1.000000
vn 0.000000 -1.000000 0.000000
vn 0.000000 -1.000000 0.000000
vn 0.000000 -1.000000 0.000000
vn 0.000000 -1.000000 0.000000
vn 0.000000 -1.000000 0.000000
vn 0.000000 -1.000000 0.000000
vn 0.000000 -1.000000 0.000000
vn 0.000000 -1.000000 0.000000
vn 0.000000 -1.000000 0.000000
vn 0.000000 -1.000000 0.000000
vn 0.000000 -1.000000 0.000000
vn 0.000000 -1.000000 0.000000
vn 0.000000 -1.000000 0.000000
vn 0.000000 -1.000000 0.000000
vn 0.000000 -1.000000 0.000000
vn 0.000000 -1.000000 0.000000
vn 0.000000 -1.000000 0.000000
vn 0.000000 -1.000000 0.000000
vn 0.000000 -1.000000 0.000000
vn 0.000000 -1.000000 0.000000
vn 0.000000 -1.000000 0.000000
vn 0.000000 -1.000000 0.000000
vn 0.000000 -1.000000 0.000000
vn 0.000000 -1.000000 0.000000
vn 0.000000 0.000000 1.000000
vn 0.000000 0.000000 1.000000
vn 0.000000 0.000000 1.000000
vn 0.000000 0.000000 1.000000
vn 0.000000 0.000000 1.000000
vn 0.000000 0.000000 1.000000
vn 0.000000 0.000000 1.000000
vn 0.000000 0.000000 1.000000
vn 0.000000 0.000000 1.000000
vn 0.000000 0.000000 1.000000
vn 0.000000 0.000000 1.000000
vn 0.000000 0.000000 1.000000
vn 0.000000 0.000000 1.000000
vn 0.000000 0.000000 1.000000
vn 0.000000 0.000000 1.000000
vn 0.000000 0.000000 1.000000
vn 0.000000 0.000000 1.000000
vn 0.000000 0.000000 1.000000
vn 0.000000 0.000000 1.000000
vn 0.000000 0.000000 1.000000
vn 0.000000 0.000000 1.000000
vn 0.000000 0.000000 1.000000
vn 0.000000 0.000000 1.000000
vn 0.000000 0.000000 1.000000
vn 0.000000 1.000000 0.000000
vn 0.000000 1.000000 0.000000
vn 0.000000 1.000000 0.000000
vn 0.000000 1.000000 0.000000
vn 0.000000 1.000000 0.000000
vn 0.000000 1.000000 0.000000
vn 0.000000 1.000000 0.000000
vn 0.000000 1.000000 0.000000
vn 0.000000 1.000000 0.000000
vn 0.000000 1.000000 0.000000
vn 0.000000 1.000000 0.000000
vn 0.000000 1.000000 0.000000
vn 0.000000 1.000000 0.000000
vn 0.000000 1.000000 0.000000
vn 0.000000 1.000000 0.000000
vn 0.000000 1.000000 0.000000
vn 0.000000 1.000000 0.000000
vn 0.000000 1.000000 0.000000
vn 0.000000 1.000000 0.000000
vn 0.000000 1.000000 0.000000
vn 0.000000 1.000000 0.000000
vn 0.000000 1.000000 0.000000
vn 0.000000 1.000000 0.000000
vn 0.000000 1.000000 0.000000
vn 0.000000 0.000000 -1.000000
vn 0.000000 0.000000 -1.000000
vn 0.000000 0.000000 -1.000000
vn 0.000000 0.000000 -1.000000
s off
g pCube64
f 1/1/1 2/2/2 4/3/3 3/4/4
f 3/4/5 4/3/6 6/5/7 5/6/8
f 5/6/9 6/5/10 8/7/11 7/8/12
f 7/8/13 8/7/14 10/9/15 9/10/16
f 9/10/17 10/9/18 12/11/19 11/12/20
f 11/12/21 12/11/22 14/13/23 13/14/24
f 13/15/25 14/16/26 16/17/27 15/18/28
f 15/18/29 16/17/30 18/19/31 17/20/32
f 17/20/33 18/19/34 20/21/35 19/22/36
f 19/22/37 20/21/38 22/23/39 21/24/40
f 21/24/41 22/23/42 24/25/43 23/26/44
f 23/26/45 24/25/46 26/27/47 25/28/48
f 25/29/49 26/30/50 28/31/51 27/32/52
f 27/32/53 28/31/54 30/33/55 29/34/56
f 29/34/57 30/33/58 32/35/59 31/36/60
f 31/36/61 32/35/62 34/37/63 33/38/64
f 33/38/65 34/37/66 36/39/67 35/40/68
f 35/40/69 36/39/70 38/41/71 37/42/72
f 37/43/73 38/44/74 40/45/75 39/46/76
f 39/46/77 40/45/78 42/47/79 41/48/80
f 41/48/81 42/47/82 44/49/83 43/50/84
f 43/50/85 44/49/86 46/51/87 45/52/88
f 45/52/89 46/51/90 48/53/91 47/54/92
f 47/54/93 48/53/94 2/55/95 1/56/96
f 1/57/97 3/58/98 50/59/99 49/60/100
f 4/61/101 2/62/102 51/63/103 52/64/104
f 3/58/105 5/65/106 53/66/107 50/59/108
f 6/67/109 4/61/110 52/64/111 54/68/112
f 5/65/113 7/69/114 55/70/115 53/66/116
f 8/71/117 6/67/118 54/68/119 56/72/120
f 7/69/121 9/73/122 57/74/123 55/70/124
f 10/75/125 8/71/126 56/72/127 58/76/128
f 9/73/129 11/77/130 59/78/131 57/74/132
f 12/79/133 10/75/134 58/76/135 60/80/136
f 11/77/137 13/81/138 61/82/139 59/78/140
f 14/83/141 12/79/142 60/80/143 62/84/144
f 13/81/145 15/85/146 63/86/147 61/82/148
f 16/87/149 14/83/150 62/84/151 64/88/152
f 15/85/153 17/89/154 65/90/155 63/86/156
f 18/91/157 16/87/158 64/88/159 66/92/160
f 17/89/161 19/93/162 67/94/163 65/90/164
f 20/95/165 18/91/166 66/92/167 68/96/168
f 19/93/169 21/97/170 69/98/171 67/94/172
f 22/99/173 20/95/174 68/96/175 70/100/176
f 21/97/177 23/101/178 71/102/179 69/98/180
f 24/103/181 22/99/182 70/100/183 72/104/184
f 23/101/185 25/105/186 73/106/187 71/102/188
f 26/107/189 24/103/190 72/104/191 74/108/192
f 25/105/193 27/109/194 75/110/195 73/106/196
f 28/111/197 26/107/198 74/108/199 76/112/200
f 27/109/201 29/113/202 77/114/203 75/110/204
f 30/115/205 28/111/206 76/112/207 78/116/208
f 29/113/209 31/117/210 79/118/211 77/114/212
f 32/119/213 30/115/214 78/116/215 80/120/216
f 31/117/217 33/121/218 81/122/219 79/118/220
f 34/123/221 32/119/222 80/120/223 82/124/224
f 33/121/225 35/125/226 83/126/227 81/122/228
f 36/127/229 34/123/230 82/124/231 84/128/232
f 35/125/233 37/129/234 85/130/235 83/126/236
f 38/131/237 36/127/238 84/128/239 86/132/240
f 37/129/241 39/133/242 87/134/243 85/130/244
f 40/135/245 38/131/246 86/132/247 88/136/248
f 39/133/249 41/137/250 89/138/251 87/134/252
f 42/139/253 40/135/254 88/136/255 90/140/256
f 41/137/257 43/141/258 91/142/259 89/138/260
f 44/143/261 42/139/262 90/140/263 92/144/264
f 43/141/265 45/145/266 93/146/267 91/142/268
f 46/147/269 44/143/270 92/144/271 94/148/272
f 45/145/273 47/149/274 95/150/275 93/146/276
f 48/151/277 46/147/278 94/148/279 96/152/280
f 47/149/281 1/57/282 49/60/283 95/150/284
f 2/62/285 48/151/286 96/152/287 51/63/288
f 50/153/289 53/154/290 54/155/291 52/156/292
f 53/154/293 55/157/294 56/158/295 54/155/296
f 55/157/297 57/159/298 58/160/299 56/158/300
f 57/159/301 59/161/302 60/162/303 58/160/304
f 59/161/305 61/163/306 62/164/307 60/162/308
f 61/165/309 63/166/310 64/167/311 62/168/312
f 63/166/313 65/169/314 66/170/315 64/167/316
f 65/169/317 67/171/318 68/172/319 66/170/320
f 67/171/321 69/173/322 70/174/323 68/172/324
f 69/173/325 71/175/326 72/176/327 70/174/328
f 71/175/329 73/177/330 74/178/331 72/176/332
f 73/179/333 75/180/334 76/181/335 74/182/336
f 75/180/337 77/183/338 78/184/339 76/181/340
f 77/183/341 79/185/342 80/186/343 78/184/344
f 79/185/345 81/187/346 82/188/347 80/186/348
f 81/187/349 83/189/350 84/190/351 82/188/352
f 83/189/353 85/191/354 86/192/355 84/190/356
f 85/193/357 87/194/358 88/195/359 86/196/360
f 87/194/361 89/197/362 90/198/363 88/195/364
f 89/197/365 91/199/366 92/200/367 90/198/368
f 91/199/369 93/201/370 94/202/371 92/200/372
f 93/201/373 95/203/374 96/204/375 94/202/376
f 95/203/377 49/205/378 51/206/379 96/204/380
f 49/207/381 50/153/382 52/156/383 51/208/384
