# This file uses centimeters as units for non-parametric coordinates.

mtllib 3.mtl
g default
v 0.956679 1.011996 0.500000
v 1.123346 1.011996 0.500000
v 0.956679 1.178663 0.500000
v 1.123346 1.178663 0.500000
v 0.956679 1.345329 0.500000
v 1.123346 1.345329 0.500000
v 0.956679 1.511996 0.500000
v 1.123346 1.511996 0.500000
v 0.956679 1.678663 0.500000
v 1.123346 1.678663 0.500000
v 0.956679 1.845329 0.500000
v 1.123346 1.845329 0.500000
v 0.956679 2.011996 0.500000
v 1.123346 2.011996 0.500000
v 0.956679 2.011996 0.333333
v 1.123346 2.011996 0.333333
v 0.956679 2.011996 0.166667
v 1.123346 2.011996 0.166667
v 0.956679 2.011996 -0.000000
v 1.123346 2.011996 -0.000000
v 0.956679 2.011996 -0.166667
v 1.123346 2.011996 -0.166667
v 0.956679 2.011996 -0.333333
v 1.123346 2.011996 -0.333333
v 0.956679 2.011996 -0.500000
v 1.123346 2.011996 -0.500000
v 0.956679 1.845329 -0.500000
v 1.123346 1.845329 -0.500000
v 0.956679 1.678663 -0.500000
v 1.123346 1.678663 -0.500000
v 0.956679 1.511996 -0.500000
v 1.123346 1.511996 -0.500000
v 0.956679 1.345329 -0.500000
v 1.123346 1.345329 -0.500000
v 0.956679 1.178663 -0.500000
v 1.123346 1.178663 -0.500000
v 0.956679 1.011996 -0.500000
v 1.123346 1.011996 -0.500000
v 0.956679 1.011996 -0.333333
v 1.123346 1.011996 -0.333333
v 0.956679 1.011996 -0.166667
v 1.123346 1.011996 -0.166667
v 0.956679 1.011996 0.000000
v 1.123346 1.011996 0.000000
v 0.956679 1.011996 0.166667
v 1.123346 1.011996 0.166667
v 0.956679 1.011996 0.333333
v 1.123346 1.011996 0.333333
v 0.965627 1.065682 0.446314
v 0.965627 1.214454 0.446314
v 1.114398 1.065682 0.446314
v 1.114398 1.214454 0.446314
v 0.965627 1.363225 0.446314
v 1.114398 1.363225 0.446314
v 0.965627 1.511996 0.446314
v 1.114398 1.511996 0.446314
v 0.965627 1.660767 0.446314
v 1.114398 1.660767 0.446314
v 0.965627 1.809539 0.446314
v 1.114398 1.809539 0.446314
v 0.965627 1.958310 0.446314
v 1.114398 1.958310 0.446314
v 0.965627 1.958310 0.297542
v 1.114398 1.958310 0.297542
v 0.965627 1.958310 0.148771
v 1.114398 1.958310 0.148771
v 0.965627 1.958310 -0.000000
v 1.114398 1.958310 -0.000000
v 0.965627 1.958310 -0.148771
v 1.114398 1.958310 -0.148771
v 0.965627 1.958310 -0.297543
v 1.114398 1.958310 -0.297543
v 0.965627 1.958310 -0.446314
v 1.114398 1.958310 -0.446314
v 0.965627 1.809539 -0.446314
v 1.114398 1.809539 -0.446314
v 0.965627 1.660767 -0.446314
v 1.114398 1.660767 -0.446314
v 0.965627 1.511996 -0.446314
v 1.114398 1.511996 -0.446314
v 0.965627 1.363225 -0.446314
v 1.114398 1.363225 -0.446314
v 0.965627 1.214454 -0.446314
v 1.114398 1.214454 -0.446314
v 0.965627 1.065682 -0.446314
v 1.114398 1.065682 -0.446314
v 0.965627 1.065682 -0.297542
v 1.114398 1.065682 -0.297542
v 0.965627 1.065682 -0.148771
v 1.114398 1.065682 -0.148771
v 0.965627 1.065682 0.000000
v 1.114398 1.065682 0.000000
v 0.965627 1.065682 0.148771
v 1.114398 1.065682 0.148771
v 0.965627 1.065682 0.297543
v 1.114398 1.065682 0.297543
vt 0.416667 0.000000
vt 0.458333 0.000000
vt 0.416667 0.041667
vt 0.458333 0.041667
vt 0.416667 0.083333
vt 0.458333 0.083333
vt 0.416667 0.125000
vt 0.458333 0.125000
vt 0.416667 0.166667
vt 0.458333 0.166667
vt 0.416667 0.208333
vt 0.458333 0.208333
vt 0.416667 0.250000
vt 0.458333 0.250000
vt 0.416667 0.291667
vt 0.458333 0.291667
vt 0.416667 0.333333
vt 0.458333 0.333333
vt 0.416667 0.375000
vt 0.458333 0.375000
vt 0.416667 0.416667
vt 0.458333 0.416667
vt 0.416667 0.458333
vt 0.458333 0.458333
vt 0.416667 0.500000
vt 0.458333 0.500000
vt 0.416667 0.541667
vt 0.458333 0.541667
vt 0.416667 0.583333
vt 0.458333 0.583333
vt 0.416667 0.625000
vt 0.458333 0.625000
vt 0.416667 0.666667
vt 0.458333 0.666667
vt 0.416667 0.708333
vt 0.458333 0.708333
vt 0.416667 0.750000
vt 0.458333 0.750000
vt 0.416667 0.791667
vt 0.458333 0.791667
vt 0.416667 0.833333
vt 0.458333 0.833333
vt 0.416667 0.875000
vt 0.458333 0.875000
vt 0.416667 0.916667
vt 0.458333 0.916667
vt 0.416667 0.958333
vt 0.458333 0.958333
vt 0.416667 1.000000
vt 0.458333 1.000000
vt 0.000000 0.000000
vt 1.000000 0.000000
vt 1.000000 1.000000
vt 0.000000 1.000000
vt 0.000000 0.000000
vt 1.000000 0.000000
vt 1.000000 1.000000
vt 0.000000 1.000000
vt 0.000000 0.000000
vt 1.000000 0.000000
vt 1.000000 1.000000
vt 0.000000 1.000000
vt 0.000000 0.000000
vt 1.000000 0.000000
vt 1.000000 1.000000
vt 0.000000 1.000000
vt 0.000000 0.000000
vt 1.000000 0.000000
vt 1.000000 1.000000
vt 0.000000 1.000000
vt 0.000000 0.000000
vt 1.000000 0.000000
vt 1.000000 1.000000
vt 0.000000 1.000000
vt 0.000000 0.000000
vt 1.000000 0.000000
vt 1.000000 1.000000
vt 0.000000 1.000000
vt 0.000000 0.000000
vt 1.000000 0.000000
vt 1.000000 1.000000
vt 0.000000 1.000000
vt 0.000000 0.000000
vt 1.000000 0.000000
vt 1.000000 1.000000
vt 0.000000 1.000000
vt 0.000000 0.000000
vt 1.000000 0.000000
vt 1.000000 1.000000
vt 0.000000 1.000000
vt 0.000000 0.000000
vt 1.000000 0.000000
vt 1.000000 1.000000
vt 0.000000 1.000000
vt 0.000000 0.000000
vt 1.000000 0.000000
vt 1.000000 1.000000
vt 0.000000 1.000000
vt 0.000000 0.000000
vt 1.000000 0.000000
vt 1.000000 1.000000
vt 0.000000 1.000000
vt 0.000000 0.000000
vt 1.000000 0.000000
vt 1.000000 1.000000
vt 0.000000 1.000000
vt 0.000000 0.000000
vt 1.000000 0.000000
vt 1.000000 1.000000
vt 0.000000 1.000000
vt 0.000000 0.000000
vt 1.000000 0.000000
vt 1.000000 1.000000
vt 0.000000 1.000000
vt 0.000000 0.000000
vt 1.000000 0.000000
vt 1.000000 1.000000
vt 0.000000 1.000000
vt 0.000000 0.000000
vt 1.000000 0.000000
vt 1.000000 1.000000
vt 0.000000 1.000000
vt 0.000000 0.000000
vt 1.000000 0.000000
vt 1.000000 1.000000
vt 0.000000 1.000000
vt 0.000000 0.000000
vt 1.000000 0.000000
vt 1.000000 1.000000
vt 0.000000 1.000000
vt 0.000000 0.000000
vt 1.000000 0.000000
vt 1.000000 1.000000
vt 0.000000 1.000000
vt 0.000000 0.000000
vt 1.000000 0.000000
vt 1.000000 1.000000
vt 0.000000 1.000000
vt 0.000000 0.000000
vt 1.000000 0.000000
vt 1.000000 1.000000
vt 0.000000 1.000000
vt 0.000000 0.000000
vt 1.000000 0.000000
vt 1.000000 1.000000
vt 0.000000 1.000000
vt 0.000000 0.000000
vt 1.000000 0.000000
vt 1.000000 1.000000
vt 0.000000 1.000000
vt 0.000000 0.000000
vt 1.000000 0.000000
vt 1.000000 1.000000
vt 0.000000 1.000000
vt 0.000000 0.000000
vt 1.000000 0.000000
vt 1.000000 1.000000
vt 0.000000 1.000000
vt 0.000000 0.000000
vt 1.000000 0.000000
vt 1.000000 1.000000
vt 0.000000 1.000000
vt 0.000000 0.000000
vt 1.000000 0.000000
vt 1.000000 1.000000
vt 0.000000 1.000000
vt 0.000000 0.000000
vt 1.000000 0.000000
vt 1.000000 1.000000
vt 0.000000 1.000000
vt 0.000000 0.000000
vt 1.000000 0.000000
vt 1.000000 1.000000
vt 0.000000 1.000000
vt 0.000000 0.000000
vt 1.000000 0.000000
vt 1.000000 1.000000
vt 0.000000 1.000000
vt 0.000000 0.000000
vt 1.000000 0.000000
vt 1.000000 1.000000
vt 0.000000 1.000000
vt 0.000000 0.000000
vt 1.000000 0.000000
vt 1.000000 1.000000
vt 0.000000 1.000000
vt 0.000000 0.000000
vt 1.000000 0.000000
vt 1.000000 1.000000
vt 0.000000 1.000000
vt 0.000000 0.000000
vt 1.000000 0.000000
vt 1.000000 1.000000
vt 0.000000 1.000000
vt 0.000000 0.000000
vt 1.000000 0.000000
vt 1.000000 1.000000
vt 0.000000 1.000000
vt 0.000000 0.000000
vt 1.000000 0.000000
vt 1.000000 1.000000
vt 0.000000 1.000000
vt 0.000000 0.000000
vt 1.000000 0.000000
vt 1.000000 1.000000
vt 0.000000 1.000000
vt 0.000000 0.000000
vt 1.000000 0.000000
vt 1.000000 1.000000
vt 0.000000 1.000000
vt 0.000000 0.000000
vt 1.000000 0.000000
vt 1.000000 1.000000
vt 0.000000 1.000000
vt 0.000000 0.000000
vt 1.000000 0.000000
vt 1.000000 1.000000
vt 0.000000 1.000000
vt 0.000000 0.000000
vt 1.000000 0.000000
vt 1.000000 1.000000
vt 0.000000 1.000000
vt 0.000000 0.000000
vt 1.000000 0.000000
vt 1.000000 1.000000
vt 0.000000 1.000000
vt 0.000000 0.000000
vt 1.000000 0.000000
vt 1.000000 1.000000
vt 0.000000 1.000000
vt 0.000000 0.000000
vt 1.000000 0.000000
vt 1.000000 1.000000
vt 0.000000 1.000000
vt 0.000000 0.000000
vt 1.000000 0.000000
vt 1.000000 1.000000
vt 0.000000 1.000000
vt 0.000000 0.000000
vt 1.000000 0.000000
vt 1.000000 1.000000
vt 0.000000 1.000000
vn 0.000000 0.000000 1.000000
vn 0.000000 0.000000 1.000000
vn 0.000000 0.000000 1.000000
vn 0.000000 0.000000 1.000000
vn 0.000000 0.000000 1.000000
vn 0.000000 0.000000 1.000000
vn 0.000000 0.000000 1.000000
vn 0.000000 0.000000 1.000000
vn 0.000000 0.000000 1.000000
vn 0.000000 0.000000 1.000000
vn 0.000000 0.000000 1.000000
vn 0.000000 0.000000 1.000000
vn 0.000000 0.000000 1.000000
vn 0.000000 0.000000 1.000000
vn 0.000000 1.000000 0.000000
vn 0.000000 1.000000 0.000000
vn 0.000000 1.000000 0.000000
vn 0.000000 1.000000 0.000000
vn 0.000000 1.000000 0.000000
vn 0.000000 1.000000 0.000000
vn 0.000000 1.000000 0.000000
vn 0.000000 1.000000 0.000000
vn 0.000000 1.000000 0.000000
vn 0.000000 1.000000 0.000000
vn 0.000000 1.000000 0.000000
vn 0.000000 1.000000 0.000000
vn 0.000000 1.000000 0.000000
vn 0.000000 1.000000 0.000000
vn 0.000000 0.000000 -1.000000
vn 0.000000 0.000000 -1.000000
vn 0.000000 0.000000 -1.000000
vn 0.000000 0.000000 -1.000000
vn 0.000000 0.000000 -1.000000
vn 0.000000 0.000000 -1.000000
vn 0.000000 0.000000 -1.000000
vn 0.000000 0.000000 -1.000000
vn 0.000000 0.000000 -1.000000
vn 0.000000 0.000000 -1.000000
vn 0.000000 0.000000 -1.000000
vn 0.000000 0.000000 -1.000000
vn 0.000000 0.000000 -1.000000
vn 0.000000 0.000000 -1.000000
vn 0.000000 -1.000000 0.000000
vn 0.000000 -1.000000 0.000000
vn 0.000000 -1.000000 0.000000
vn 0.000000 -1.000000 0.000000
vn 0.000000 -1.000000 0.000000
vn 0.000000 -1.000000 0.000000
vn 0.000000 -1.000000 0.000000
vn 0.000000 -1.000000 0.000000
vn 0.000000 -1.000000 0.000000
vn 0.000000 -1.000000 0.000000
vn 0.000000 -1.000000 0.000000
vn 0.000000 -1.000000 0.000000
vn 0.000000 -1.000000 0.000000
vn 0.000000 -1.000000 0.000000
vn -0.986394 0.000000 -0.164399
vn -0.986394 0.000000 -0.164399
vn -0.986394 0.000000 -0.164399
vn -0.986394 0.000000 -0.164399
vn 0.986394 0.000000 -0.164399
vn 0.986394 0.000000 -0.164399
vn 0.986394 0.000000 -0.164399
vn 0.986394 0.000000 -0.164399
vn -0.986394 0.000000 -0.164399
vn -0.986394 0.000000 -0.164399
vn -0.986394 0.000000 -0.164399
vn -0.986394 0.000000 -0.164399
vn 0.986394 0.000000 -0.164399
vn 0.986394 0.000000 -0.164399
vn 0.986394 0.000000 -0.164399
vn 0.986394 0.000000 -0.164399
vn -0.986394 0.000000 -0.164399
vn -0.986394 0.000000 -0.164399
vn -0.986394 0.000000 -0.164399
vn -0.986394 0.000000 -0.164399
vn 0.986394 0.000000 -0.164399
vn 0.986394 0.000000 -0.164399
vn 0.986394 0.000000 -0.164399
vn 0.986394 0.000000 -0.164399
vn -0.986394 0.000000 -0.164399
vn -0.986394 0.000000 -0.164399
vn -0.986394 0.000000 -0.164399
vn -0.986394 0.000000 -0.164399
vn 0.986394 0.000000 -0.164399
vn 0.986394 0.000000 -0.164399
vn 0.986394 0.000000 -0.164399
vn 0.986394 0.000000 -0.164399
vn -0.986394 0.000000 -0.164399
vn -0.986394 0.000000 -0.164399
vn -0.986394 0.000000 -0.164399
vn -0.986394 0.000000 -0.164399
vn 0.986394 0.000000 -0.164399
vn 0.986394 0.000000 -0.164399
vn 0.986394 0.000000 -0.164399
vn 0.986394 0.000000 -0.164399
vn -0.986394 0.000000 -0.164399
vn -0.986394 0.000000 -0.164399
vn -0.986394 0.000000 -0.164399
vn -0.986394 0.000000 -0.164399
vn 0.986394 0.000000 -0.164399
vn 0.986394 0.000000 -0.164399
vn 0.986394 0.000000 -0.164399
vn 0.986394 0.000000 -0.164399
vn -0.986394 -0.164398 0.000000
vn -0.986394 -0.164398 0.000000
vn -0.986394 -0.164398 0.000000
vn -0.986394 -0.164398 0.000000
vn 0.986394 -0.164399 0.000000
vn 0.986394 -0.164399 0.000000
vn 0.986394 -0.164399 0.000000
vn 0.986394 -0.164399 0.000000
vn -0.986394 -0.164398 0.000000
vn -0.986394 -0.164398 0.000000
vn -0.986394 -0.164398 0.000000
vn -0.986394 -0.164398 0.000000
vn 0.986394 -0.164399 0.000000
vn 0.986394 -0.164399 0.000000
vn 0.986394 -0.164399 0.000000
vn 0.986394 -0.164399 0.000000
vn -0.986394 -0.164398 0.000000
vn -0.986394 -0.164398 0.000000
vn -0.986394 -0.164398 0.000000
vn -0.986394 -0.164398 0.000000
vn 0.986394 -0.164399 0.000000
vn 0.986394 -0.164399 0.000000
vn 0.986394 -0.164399 0.000000
vn 0.986394 -0.164399 0.000000
vn -0.986394 -0.164399 0.000000
vn -0.986394 -0.164399 0.000000
vn -0.986394 -0.164399 0.000000
vn -0.986394 -0.164399 0.000000
vn 0.986394 -0.164398 0.000000
vn 0.986394 -0.164398 0.000000
vn 0.986394 -0.164398 0.000000
vn 0.986394 -0.164398 0.000000
vn -0.986394 -0.164398 0.000000
vn -0.986394 -0.164398 0.000000
vn -0.986394 -0.164398 0.000000
vn -0.986394 -0.164398 0.000000
vn 0.986394 -0.164398 0.000000
vn 0.986394 -0.164398 0.000000
vn 0.986394 -0.164398 0.000000
vn 0.986394 -0.164398 0.000000
vn -0.986394 -0.164398 0.000000
vn -0.986394 -0.164398 0.000000
vn -0.986394 -0.164398 0.000000
vn -0.986394 -0.164398 0.000000
vn 0.986394 -0.164399 0.000000
vn 0.986394 -0.164399 0.000000
vn 0.986394 -0.164399 0.000000
vn 0.986394 -0.164399 0.000000
vn -0.986394 0.000000 0.164399
vn -0.986394 0.000000 0.164399
vn -0.986394 0.000000 0.164399
vn -0.986394 0.000000 0.164399
vn 0.986394 0.000000 0.164399
vn 0.986394 0.000000 0.164399
vn 0.986394 0.000000 0.164399
vn 0.986394 0.000000 0.164399
vn -0.986394 0.000000 0.164399
vn -0.986394 0.000000 0.164399
vn -0.986394 0.000000 0.164399
vn -0.986394 0.000000 0.164399
vn 0.986394 0.000000 0.164399
vn 0.986394 0.000000 0.164399
vn 0.986394 0.000000 0.164399
vn 0.986394 0.000000 0.164399
vn -0.986394 0.000000 0.164399
vn -0.986394 0.000000 0.164399
vn -0.986394 0.000000 0.164399
vn -0.986394 0.000000 0.164399
vn 0.986394 0.000000 0.164399
vn 0.986394 0.000000 0.164399
vn 0.986394 0.000000 0.164399
vn 0.986394 0.000000 0.164399
vn -0.986394 0.000000 0.164399
vn -0.986394 0.000000 0.164399
vn -0.986394 0.000000 0.164399
vn -0.986394 0.000000 0.164399
vn 0.986394 0.000000 0.164399
vn 0.986394 0.000000 0.164399
vn 0.986394 0.000000 0.164399
vn 0.986394 0.000000 0.164399
vn -0.986394 0.000000 0.164399
vn -0.986394 0.000000 0.164399
vn -0.986394 0.000000 0.164399
vn -0.986394 0.000000 0.164399
vn 0.986394 0.000000 0.164399
vn 0.986394 0.000000 0.164399
vn 0.986394 0.000000 0.164399
vn 0.986394 0.000000 0.164399
vn -0.986394 0.000000 0.164399
vn -0.986394 0.000000 0.164399
vn -0.986394 0.000000 0.164399
vn -0.986394 0.000000 0.164399
vn 0.986394 0.000000 0.164399
vn 0.986394 0.000000 0.164399
vn 0.986394 0.000000 0.164399
vn 0.986394 0.000000 0.164399
vn -0.986394 0.164399 0.000000
vn -0.986394 0.164399 0.000000
vn -0.986394 0.164399 0.000000
vn -0.986394 0.164399 0.000000
vn 0.986394 0.164399 0.000000
vn 0.986394 0.164399 0.000000
vn 0.986394 0.164399 0.000000
vn 0.986394 0.164399 0.000000
vn -0.986394 0.164399 0.000000
vn -0.986394 0.164399 0.000000
vn -0.986394 0.164399 0.000000
vn -0.986394 0.164399 0.000000
vn 0.986394 0.164399 0.000000
vn 0.986394 0.164399 0.000000
vn 0.986394 0.164399 0.000000
vn 0.986394 0.164399 0.000000
vn -0.986394 0.164399 0.000000
vn -0.986394 0.164399 0.000000
vn -0.986394 0.164399 0.000000
vn -0.986394 0.164399 0.000000
vn 0.986394 0.164399 0.000000
vn 0.986394 0.164399 0.000000
vn 0.986394 0.164399 0.000000
vn 0.986394 0.164399 0.000000
vn -0.986394 0.164399 0.000000
vn -0.986394 0.164399 0.000000
vn -0.986394 0.164399 0.000000
vn -0.986394 0.164399 0.000000
vn 0.986394 0.164399 0.000000
vn 0.986394 0.164399 0.000000
vn 0.986394 0.164399 0.000000
vn 0.986394 0.164399 0.000000
vn -0.986394 0.164399 0.000000
vn -0.986394 0.164399 0.000000
vn -0.986394 0.164399 0.000000
vn -0.986394 0.164399 0.000000
vn 0.986394 0.164399 0.000000
vn 0.986394 0.164399 0.000000
vn 0.986394 0.164399 0.000000
vn 0.986394 0.164399 0.000000
vn -0.986394 0.164398 0.000000
vn -0.986394 0.164399 0.000000
vn -0.986394 0.164398 0.000000
vn -0.986394 0.164399 0.000000
vn 0.986394 0.164399 0.000000
vn 0.986394 0.164399 0.000000
vn 0.986394 0.164399 0.000000
vn 0.986394 0.164399 0.000000
vn 0.000000 0.000000 -1.000000
vn 0.000000 0.000000 -1.000000
vn 0.000000 0.000000 -1.000000
vn 0.000000 0.000000 -1.000000
vn 0.000000 0.000000 -1.000000
vn 0.000000 0.000000 -1.000000
vn 0.000000 0.000000 -1.000000
vn 0.000000 0.000000 -1.000000
vn 0.000000 0.000000 -1.000000
vn 0.000000 0.000000 -1.000000
vn 0.000000 0.000000 -1.000000
vn 0.000000 0.000000 -1.000000
vn 0.000000 0.000000 -1.000000
vn 0.000000 0.000000 -1.000000
vn 0.000000 0.000000 -1.000000
vn 0.000000 0.000000 -1.000000
vn 0.000000 0.000000 -1.000000
vn 0.000000 0.000000 -1.000000
vn 0.000000 0.000000 -1.000000
vn 0.000000 0.000000 -1.000000
vn 0.000000 -1.000000 0.000000
vn 0.000000 -1.000000 0.000000
vn 0.000000 -1.000000 0.000000
vn 0.000000 -1.000000 0.000000
vn 0.000000 -1.000000 0.000000
vn 0.000000 -1.000000 0.000000
vn 0.000000 -1.000000 0.000000
vn 0.000000 -1.000000 0.000000
vn 0.000000 -1.000000 0.000000
vn 0.000000 -1.000000 0.000000
vn 0.000000 -1.000000 0.000000
vn 0.000000 -1.000000 0.000000
vn 0.000000 -1.000000 0.000000
vn 0.000000 -1.000000 0.000000
vn 0.000000 -1.000000 0.000000
vn 0.000000 -1.000000 0.000000
vn 0.000000 -1.000000 0.000000
vn 0.000000 -1.000000 0.000000
vn 0.000000 -1.000000 0.000000
vn 0.000000 -1.000000 0.000000
vn 0.000000 -1.000000 0.000000
vn 0.000000 -1.000000 0.000000
vn 0.000000 -1.000000 0.000000
vn 0.000000 -1.000000 0.000000
vn 0.000000 0.000000 1.000000
vn 0.000000 0.000000 1.000000
vn 0.000000 0.000000 1.000000
vn 0.000000 0.000000 1.000000
vn 0.000000 0.000000 1.000000
vn 0.000000 0.000000 1.000000
vn 0.000000 0.000000 1.000000
vn 0.000000 0.000000 1.000000
vn 0.000000 0.000000 1.000000
vn 0.000000 0.000000 1.000000
vn 0.000000 0.000000 1.000000
vn 0.000000 0.000000 1.000000
vn 0.000000 0.000000 1.000000
vn 0.000000 0.000000 1.000000
vn 0.000000 0.000000 1.000000
vn 0.000000 0.000000 1.000000
vn 0.000000 0.000000 1.000000
vn 0.000000 0.000000 1.000000
vn 0.000000 0.000000 1.000000
vn 0.000000 0.000000 1.000000
vn 0.000000 0.000000 1.000000
vn 0.000000 0.000000 1.000000
vn 0.000000 0.000000 1.000000
vn 0.000000 0.000000 1.000000
vn 0.000000 1.000000 0.000000
vn 0.000000 1.000000 0.000000
vn 0.000000 1.000000 0.000000
vn 0.000000 1.000000 0.000000
vn 0.000000 1.000000 0.000000
vn 0.000000 1.000000 0.000000
vn 0.000000 1.000000 0.000000
vn 0.000000 1.000000 0.000000
vn 0.000000 1.000000 0.000000
vn 0.000000 1.000000 0.000000
vn 0.000000 1.000000 0.000000
vn 0.000000 1.000000 0.000000
vn 0.000000 1.000000 0.000000
vn 0.000000 1.000000 0.000000
vn 0.000000 1.000000 0.000000
vn 0.000000 1.000000 0.000000
vn 0.000000 1.000000 0.000000
vn 0.000000 1.000000 0.000000
vn 0.000000 1.000000 0.000000
vn 0.000000 1.000000 0.000000
vn 0.000000 1.000000 0.000000
vn 0.000000 1.000000 0.000000
vn 0.000000 1.000000 0.000000
vn 0.000000 1.000000 0.000000
vn 0.000000 0.000000 -1.000000
vn 0.000000 0.000000 -1.000000
vn 0.000000 0.000000 -1.000000
vn 0.000000 0.000000 -1.000000
s 1
g pCube6
usemtl initialShadingGroup
f 1/1/1 2/2/2 4/4/3 3/3/4
f 3/3/4 4/4/3 6/6/5 5/5/6
f 5/5/6 6/6/5 8/8/7 7/7/8
f 7/7/8 8/8/7 10/10/9 9/9/10
f 9/9/10 10/10/9 12/12/11 11/11/12
f 11/11/12 12/12/11 14/14/13 13/13/14
s 2
f 13/13/15 14/14/16 16/16/17 15/15/18
f 15/15/18 16/16/17 18/18/19 17/17/20
f 17/17/20 18/18/19 20/20/21 19/19/22
f 19/19/22 20/20/21 22/22/23 21/21/24
f 21/21/24 22/22/23 24/24/25 23/23/26
f 23/23/26 24/24/25 26/26/27 25/25/28
s 3
f 25/25/29 26/26/30 28/28/31 27/27/32
f 27/27/32 28/28/31 30/30/33 29/29/34
f 29/29/34 30/30/33 32/32/35 31/31/36
f 31/31/36 32/32/35 34/34/37 33/33/38
f 33/33/38 34/34/37 36/36/39 35/35/40
f 35/35/40 36/36/39 38/38/41 37/37/42
s 4
f 37/37/43 38/38/44 40/40/45 39/39/46
f 39/39/46 40/40/45 42/42/47 41/41/48
f 41/41/48 42/42/47 44/44/49 43/43/50
f 43/43/50 44/44/49 46/46/51 45/45/52
f 45/45/52 46/46/51 48/48/53 47/47/54
f 47/47/54 48/48/53 2/50/55 1/49/56
s off
f 1/51/57 3/52/58 50/53/59 49/54/60
f 4/55/61 2/56/62 51/57/63 52/58/64
f 3/59/65 5/60/66 53/61/67 50/62/68
f 6/63/69 4/64/70 52/65/71 54/66/72
f 5/67/73 7/68/74 55/69/75 53/70/76
f 8/71/77 6/72/78 54/73/79 56/74/80
f 7/75/81 9/76/82 57/77/83 55/78/84
f 10/79/85 8/80/86 56/81/87 58/82/88
f 9/83/89 11/84/90 59/85/91 57/86/92
f 12/87/93 10/88/94 58/89/95 60/90/96
f 11/91/97 13/92/98 61/93/99 59/94/100
f 14/95/101 12/96/102 60/97/103 62/98/104
f 13/99/105 15/100/106 63/101/107 61/102/108
f 16/103/109 14/104/110 62/105/111 64/106/112
f 15/107/113 17/108/114 65/109/115 63/110/116
f 18/111/117 16/112/118 64/113/119 66/114/120
f 17/115/121 19/116/122 67/117/123 65/118/124
f 20/119/125 18/120/126 66/121/127 68/122/128
f 19/123/129 21/124/130 69/125/131 67/126/132
f 22/127/133 20/128/134 68/129/135 70/130/136
f 21/131/137 23/132/138 71/133/139 69/134/140
f 24/135/141 22/136/142 70/137/143 72/138/144
f 23/139/145 25/140/146 73/141/147 71/142/148
f 26/143/149 24/144/150 72/145/151 74/146/152
f 25/147/153 27/148/154 75/149/155 73/150/156
f 28/151/157 26/152/158 74/153/159 76/154/160
f 27/155/161 29/156/162 77/157/163 75/158/164
f 30/159/165 28/160/166 76/161/167 78/162/168
f 29/163/169 31/164/170 79/165/171 77/166/172
f 32/167/173 30/168/174 78/169/175 80/170/176
f 31/171/177 33/172/178 81/173/179 79/174/180
f 34/175/181 32/176/182 80/177/183 82/178/184
f 33/179/185 35/180/186 83/181/187 81/182/188
f 36/183/189 34/184/190 82/185/191 84/186/192
f 35/187/193 37/188/194 85/189/195 83/190/196
f 38/191/197 36/192/198 84/193/199 86/194/200
f 37/195/201 39/196/202 87/197/203 85/198/204
f 40/199/205 38/200/206 86/201/207 88/202/208
f 39/203/209 41/204/210 89/205/211 87/206/212
f 42/207/213 40/208/214 88/209/215 90/210/216
f 41/211/217 43/212/218 91/213/219 89/214/220
f 44/215/221 42/216/222 90/217/223 92/218/224
f 43/219/225 45/220/226 93/221/227 91/222/228
f 46/223/229 44/224/230 92/225/231 94/226/232
f 45/227/233 47/228/234 95/229/235 93/230/236
f 48/231/237 46/232/238 94/233/239 96/234/240
f 47/235/241 1/236/242 49/237/243 95/238/244
f 2/239/245 48/240/246 96/241/247 51/242/248
f 50/62/249 53/61/250 54/66/251 52/65/252
f 53/70/253 55/69/254 56/74/255 54/73/256
f 55/78/257 57/77/258 58/82/259 56/81/260
f 57/86/261 59/85/262 60/90/263 58/89/264
f 59/94/265 61/93/266 62/98/267 60/97/268
f 61/102/269 63/101/270 64/106/271 62/105/272
f 63/110/273 65/109/274 66/114/275 64/113/276
f 65/118/277 67/117/278 68/122/279 66/121/280
f 67/126/281 69/125/282 70/130/283 68/129/284
f 69/134/285 71/133/286 72/138/287 70/137/288
f 71/142/289 73/141/290 74/146/291 72/145/292
f 73/150/293 75/149/294 76/154/295 74/153/296
f 75/158/297 77/157/298 78/162/299 76/161/300
f 77/166/301 79/165/302 80/170/303 78/169/304
f 79/174/305 81/173/306 82/178/307 80/177/308
f 81/182/309 83/181/310 84/186/311 82/185/312
f 83/190/313 85/189/314 86/194/315 84/193/316
f 85/198/317 87/197/318 88/202/319 86/201/320
f 87/206/321 89/205/322 90/210/323 88/209/324
f 89/214/325 91/213/326 92/218/327 90/217/328
f 91/222/329 93/221/330 94/226/331 92/225/332
f 93/230/333 95/229/334 96/234/335 94/233/336
f 95/238/337 49/237/338 51/242/339 96/241/340
f 49/54/341 50/53/342 52/58/343 51/57/344
