# This file uses centimeters as units for non-parametric coordinates.

mtllib CUBE2OK.mtl
g default
v -1.306273 2.000373 5.345703
v -1.139607 2.000373 5.345703
v -1.306273 2.167040 5.345703
v -1.139607 2.167040 5.345703
v -1.306273 2.333707 5.345703
v -1.139607 2.333707 5.345703
v -1.306273 2.500373 5.345703
v -1.139607 2.500373 5.345703
v -1.306273 2.667040 5.345703
v -1.139607 2.667040 5.345703
v -1.306273 2.833707 5.345703
v -1.139607 2.833707 5.345703
v -1.306273 3.000374 5.345703
v -1.139607 3.000374 5.345703
v -1.306273 3.000374 5.179036
v -1.139607 3.000374 5.179036
v -1.306273 3.000374 5.012369
v -1.139607 3.000374 5.012369
v -1.306273 3.000374 4.845702
v -1.139607 3.000374 4.845702
v -1.306273 3.000374 4.679036
v -1.139607 3.000374 4.679036
v -1.306273 3.000374 4.512369
v -1.139607 3.000374 4.512369
v -1.306273 3.000374 4.345703
v -1.139607 3.000374 4.345703
v -1.306273 2.833707 4.345703
v -1.139607 2.833707 4.345703
v -1.306273 2.667040 4.345703
v -1.139607 2.667040 4.345703
v -1.306273 2.500373 4.345703
v -1.139607 2.500373 4.345703
v -1.306273 2.333707 4.345703
v -1.139607 2.333707 4.345703
v -1.306273 2.167040 4.345703
v -1.139607 2.167040 4.345703
v -1.306273 2.000373 4.345703
v -1.139607 2.000373 4.345703
v -1.306273 2.000373 4.512369
v -1.139607 2.000373 4.512369
v -1.306273 2.000373 4.679036
v -1.139607 2.000373 4.679036
v -1.306273 2.000373 4.845703
v -1.139607 2.000373 4.845703
v -1.306273 2.000373 5.012369
v -1.139607 2.000373 5.012369
v -1.306273 2.000373 5.179036
v -1.139607 2.000373 5.179036
v -1.297326 2.054060 5.292016
v -1.297326 2.202831 5.292016
v -1.148554 2.054060 5.292016
v -1.148554 2.202831 5.292016
v -1.297326 2.351602 5.292016
v -1.148554 2.351602 5.292016
v -1.297326 2.500373 5.292016
v -1.148554 2.500373 5.292016
v -1.297326 2.649145 5.292016
v -1.148554 2.649145 5.292016
v -1.297326 2.797916 5.292016
v -1.148554 2.797916 5.292016
v -1.297326 2.946687 5.292016
v -1.148554 2.946687 5.292016
v -1.297326 2.946687 5.143245
v -1.148554 2.946687 5.143245
v -1.297326 2.946687 4.994474
v -1.148554 2.946687 4.994474
v -1.297326 2.946687 4.845702
v -1.148554 2.946687 4.845702
v -1.297326 2.946687 4.696931
v -1.148554 2.946687 4.696931
v -1.297326 2.946687 4.548160
v -1.148554 2.946687 4.548160
v -1.297326 2.946687 4.399389
v -1.148554 2.946687 4.399389
v -1.297326 2.797916 4.399389
v -1.148554 2.797916 4.399389
v -1.297326 2.649145 4.399389
v -1.148554 2.649145 4.399389
v -1.297326 2.500373 4.399389
v -1.148554 2.500373 4.399389
v -1.297326 2.351602 4.399389
v -1.148554 2.351602 4.399389
v -1.297326 2.202831 4.399389
v -1.148554 2.202831 4.399389
v -1.297326 2.054060 4.399389
v -1.148554 2.054060 4.399389
v -1.297326 2.054060 4.548160
v -1.148554 2.054060 4.548160
v -1.297326 2.054060 4.696931
v -1.148554 2.054060 4.696931
v -1.297326 2.054060 4.845703
v -1.148554 2.054060 4.845703
v -1.297326 2.054060 4.994474
v -1.148554 2.054060 4.994474
v -1.297326 2.054060 5.143245
v -1.148554 2.054060 5.143245
vt 0.993512 0.001938
vt 0.993512 0.084625
vt 0.940522 0.102382
vt 0.940522 0.028573
vt 0.993512 0.167313
vt 0.940522 0.176191
vt 0.829008 0.001938
vt 0.793681 0.028573
vt 0.993512 0.250000
vt 0.940522 0.250000
vt 0.664504 0.001938
vt 0.646841 0.028573
vt 0.993512 0.332688
vt 0.940522 0.323809
vt 0.500000 0.001938
vt 0.500000 0.028573
vt 0.993512 0.415375
vt 0.940522 0.397618
vt 0.335496 0.001938
vt 0.353159 0.028573
vt 0.993512 0.498062
vt 0.940522 0.471427
vt 0.170992 0.001938
vt 0.206319 0.028573
vt 0.829008 0.498062
vt 0.793681 0.471427
vt 0.006488 0.001938
vt 0.059478 0.028573
vt 0.664504 0.498062
vt 0.646841 0.471427
vt 0.006488 0.084625
vt 0.059478 0.102382
vt 0.500000 0.498062
vt 0.500000 0.471427
vt 0.006488 0.167312
vt 0.059478 0.176191
vt 0.335496 0.498062
vt 0.353159 0.471427
vt 0.006488 0.250000
vt 0.059478 0.250000
vt 0.170992 0.498062
vt 0.206319 0.471427
vt 0.006488 0.332687
vt 0.059478 0.323809
vt 0.006488 0.498062
vt 0.059478 0.471427
vt 0.006488 0.415375
vt 0.059478 0.397618
vt 0.170992 0.998062
vt 0.006488 0.998062
vt 0.059478 0.971427
vt 0.206318 0.971427
vt 0.006488 0.915375
vt 0.059478 0.897618
vt 0.335496 0.998062
vt 0.353159 0.971427
vt 0.006488 0.832688
vt 0.059478 0.823809
vt 0.500000 0.998062
vt 0.500000 0.971427
vt 0.006488 0.750000
vt 0.059478 0.750000
vt 0.664504 0.998062
vt 0.646841 0.971427
vt 0.006488 0.667313
vt 0.059478 0.676191
vt 0.829008 0.998062
vt 0.793682 0.971427
vt 0.006488 0.584625
vt 0.059478 0.602382
vt 0.993512 0.998062
vt 0.940522 0.971427
vt 0.006488 0.501938
vt 0.059478 0.528573
vt 0.993512 0.915375
vt 0.940522 0.897618
vt 0.170992 0.501938
vt 0.206318 0.528573
vt 0.993512 0.832687
vt 0.940522 0.823809
vt 0.335496 0.501938
vt 0.353159 0.528573
vt 0.993512 0.750000
vt 0.940522 0.750000
vt 0.500000 0.501938
vt 0.500000 0.528573
vt 0.993512 0.667313
vt 0.940522 0.676191
vt 0.664504 0.501938
vt 0.646841 0.528573
vt 0.993512 0.584625
vt 0.940522 0.602382
vt 0.829008 0.501938
vt 0.793682 0.528573
vt 0.993512 0.501938
vt 0.940522 0.528573
vt 0.285596 0.032705
vt 0.500000 0.032705
vt 0.500000 0.105137
vt 0.285596 0.105137
vt 0.500000 0.177568
vt 0.285596 0.177568
vt 0.500000 0.250000
vt 0.285596 0.250000
vt 0.500000 0.322432
vt 0.285596 0.322432
vt 0.500000 0.394864
vt 0.285596 0.394864
vt 0.500000 0.467295
vt 0.285596 0.467295
vt 0.714404 0.032705
vt 0.928809 0.032705
vt 0.928809 0.105136
vt 0.714404 0.105136
vt 0.928809 0.177568
vt 0.714404 0.177568
vt 0.928809 0.250000
vt 0.714404 0.250000
vt 0.928809 0.322432
vt 0.714404 0.322432
vt 0.928809 0.394863
vt 0.714404 0.394863
vt 0.928809 0.467295
vt 0.714404 0.467295
vt 0.283793 0.967295
vt 0.283793 0.894863
vt 0.500000 0.894863
vt 0.500000 0.967295
vt 0.283793 0.822432
vt 0.500000 0.822432
vt 0.283793 0.750000
vt 0.500000 0.750000
vt 0.283793 0.677568
vt 0.500000 0.677568
vt 0.283793 0.605137
vt 0.500000 0.605137
vt 0.283793 0.532705
vt 0.500000 0.532705
vt 0.716207 0.967295
vt 0.716207 0.894863
vt 0.932414 0.894863
vt 0.932414 0.967295
vt 0.716207 0.822432
vt 0.932414 0.822432
vt 0.716207 0.750000
vt 0.932414 0.750000
vt 0.716207 0.677568
vt 0.932414 0.677568
vt 0.716207 0.605137
vt 0.932414 0.605137
vt 0.716207 0.532705
vt 0.932414 0.532705
vt 0.071191 0.032705
vt 0.285596 0.032705
vt 0.285596 0.105136
vt 0.071191 0.105136
vt 0.285596 0.177568
vt 0.071191 0.177568
vt 0.285596 0.250000
vt 0.071191 0.250000
vt 0.285596 0.322432
vt 0.071191 0.322432
vt 0.285596 0.394864
vt 0.071191 0.394864
vt 0.285596 0.467295
vt 0.071191 0.467295
vt 0.500000 0.032705
vt 0.714404 0.032705
vt 0.714404 0.105137
vt 0.500000 0.105137
vt 0.714404 0.177568
vt 0.500000 0.177568
vt 0.714404 0.250000
vt 0.500000 0.250000
vt 0.714404 0.322432
vt 0.500000 0.322432
vt 0.714404 0.394863
vt 0.500000 0.394863
vt 0.714404 0.467295
vt 0.500000 0.467295
vt 0.067586 0.894864
vt 0.067586 0.822432
vt 0.283793 0.822432
vt 0.283793 0.894864
vt 0.067586 0.750000
vt 0.283793 0.750000
vt 0.067586 0.967295
vt 0.283793 0.967295
vt 0.067586 0.677568
vt 0.283793 0.677568
vt 0.067586 0.605136
vt 0.283793 0.605136
vt 0.067586 0.532705
vt 0.283793 0.532705
vt 0.500000 0.967295
vt 0.500000 0.894863
vt 0.716207 0.894863
vt 0.716207 0.967295
vt 0.500000 0.822432
vt 0.716207 0.822432
vt 0.500000 0.750000
vt 0.716207 0.750000
vt 0.500000 0.677568
vt 0.716207 0.677568
vt 0.500000 0.605137
vt 0.716207 0.605137
vt 0.500000 0.532705
vt 0.716207 0.532705
vn 0.000000 0.000000 1.000000
vn 0.000000 0.000000 1.000000
vn 0.000000 0.000000 1.000000
vn 0.000000 0.000000 1.000000
vn 0.000000 0.000000 1.000000
vn 0.000000 0.000000 1.000000
vn 0.000000 0.000000 1.000000
vn 0.000000 0.000000 1.000000
vn 0.000000 0.000000 1.000000
vn 0.000000 0.000000 1.000000
vn 0.000000 0.000000 1.000000
vn 0.000000 0.000000 1.000000
vn 0.000000 0.000000 1.000000
vn 0.000000 0.000000 1.000000
vn 0.000000 1.000000 0.000000
vn 0.000000 1.000000 0.000000
vn 0.000000 1.000000 0.000000
vn 0.000000 1.000000 0.000000
vn 0.000000 1.000000 0.000000
vn 0.000000 1.000000 0.000000
vn 0.000000 1.000000 0.000000
vn 0.000000 1.000000 0.000000
vn 0.000000 1.000000 0.000000
vn 0.000000 1.000000 0.000000
vn 0.000000 1.000000 0.000000
vn 0.000000 1.000000 0.000000
vn 0.000000 1.000000 0.000000
vn 0.000000 1.000000 0.000000
vn 0.000000 0.000000 -1.000000
vn 0.000000 0.000000 -1.000000
vn 0.000000 0.000000 -1.000000
vn 0.000000 0.000000 -1.000000
vn 0.000000 0.000000 -1.000000
vn 0.000000 0.000000 -1.000000
vn 0.000000 0.000000 -1.000000
vn 0.000000 0.000000 -1.000000
vn 0.000000 0.000000 -1.000000
vn 0.000000 0.000000 -1.000000
vn 0.000000 0.000000 -1.000000
vn 0.000000 0.000000 -1.000000
vn 0.000000 0.000000 -1.000000
vn 0.000000 0.000000 -1.000000
vn 0.000000 -1.000000 0.000000
vn 0.000000 -1.000000 0.000000
vn 0.000000 -1.000000 0.000000
vn 0.000000 -1.000000 0.000000
vn 0.000000 -1.000000 0.000000
vn 0.000000 -1.000000 0.000000
vn 0.000000 -1.000000 0.000000
vn 0.000000 -1.000000 0.000000
vn 0.000000 -1.000000 0.000000
vn 0.000000 -1.000000 0.000000
vn 0.000000 -1.000000 0.000000
vn 0.000000 -1.000000 0.000000
vn 0.000000 -1.000000 0.000000
vn 0.000000 -1.000000 0.000000
vn -0.986394 0.000000 -0.164399
vn -0.986394 0.000000 -0.164399
vn -0.986394 0.000000 -0.164399
vn -0.986394 0.000000 -0.164399
vn 0.986394 0.000000 -0.164399
vn 0.986394 0.000000 -0.164399
vn 0.986394 0.000000 -0.164399
vn 0.986394 0.000000 -0.164399
vn -0.986394 0.000000 -0.164399
vn -0.986394 0.000000 -0.164399
vn -0.986394 0.000000 -0.164399
vn -0.986394 0.000000 -0.164399
vn 0.986394 0.000000 -0.164399
vn 0.986394 0.000000 -0.164399
vn 0.986394 0.000000 -0.164399
vn 0.986394 0.000000 -0.164399
vn -0.986394 0.000000 -0.164399
vn -0.986394 0.000000 -0.164399
vn -0.986394 0.000000 -0.164399
vn -0.986394 0.000000 -0.164399
vn 0.986394 0.000000 -0.164399
vn 0.986394 0.000000 -0.164399
vn 0.986394 0.000000 -0.164399
vn 0.986394 0.000000 -0.164399
vn -0.986394 0.000000 -0.164399
vn -0.986394 0.000000 -0.164399
vn -0.986394 0.000000 -0.164399
vn -0.986394 0.000000 -0.164399
vn 0.986394 0.000000 -0.164399
vn 0.986394 0.000000 -0.164399
vn 0.986394 0.000000 -0.164399
vn 0.986394 0.000000 -0.164399
vn -0.986394 0.000000 -0.164399
vn -0.986394 0.000000 -0.164399
vn -0.986394 0.000000 -0.164399
vn -0.986394 0.000000 -0.164399
vn 0.986394 0.000000 -0.164399
vn 0.986394 0.000000 -0.164399
vn 0.986394 0.000000 -0.164399
vn 0.986394 0.000000 -0.164399
vn -0.986394 0.000000 -0.164399
vn -0.986394 0.000000 -0.164399
vn -0.986394 0.000000 -0.164399
vn -0.986394 0.000000 -0.164399
vn 0.986394 0.000000 -0.164399
vn 0.986394 0.000000 -0.164399
vn 0.986394 0.000000 -0.164399
vn 0.986394 0.000000 -0.164399
vn -0.986394 -0.164398 0.000000
vn -0.986394 -0.164398 0.000000
vn -0.986394 -0.164398 0.000000
vn -0.986394 -0.164398 0.000000
vn 0.986394 -0.164399 0.000000
vn 0.986394 -0.164399 0.000000
vn 0.986394 -0.164399 0.000000
vn 0.986394 -0.164399 0.000000
vn -0.986394 -0.164398 0.000000
vn -0.986394 -0.164398 0.000000
vn -0.986394 -0.164398 0.000000
vn -0.986394 -0.164398 0.000000
vn 0.986394 -0.164399 0.000000
vn 0.986394 -0.164399 0.000000
vn 0.986394 -0.164399 0.000000
vn 0.986394 -0.164399 0.000000
vn -0.986394 -0.164398 0.000000
vn -0.986394 -0.164398 0.000000
vn -0.986394 -0.164398 0.000000
vn -0.986394 -0.164398 0.000000
vn 0.986394 -0.164399 0.000000
vn 0.986394 -0.164399 0.000000
vn 0.986394 -0.164399 0.000000
vn 0.986394 -0.164399 0.000000
vn -0.986394 -0.164399 0.000000
vn -0.986394 -0.164399 0.000000
vn -0.986394 -0.164399 0.000000
vn -0.986394 -0.164399 0.000000
vn 0.986394 -0.164398 0.000000
vn 0.986394 -0.164398 0.000000
vn 0.986394 -0.164398 0.000000
vn 0.986394 -0.164398 0.000000
vn -0.986394 -0.164398 0.000000
vn -0.986394 -0.164398 0.000000
vn -0.986394 -0.164398 0.000000
vn -0.986394 -0.164398 0.000000
vn 0.986394 -0.164398 0.000000
vn 0.986394 -0.164398 0.000000
vn 0.986394 -0.164398 0.000000
vn 0.986394 -0.164398 0.000000
vn -0.986394 -0.164398 0.000000
vn -0.986394 -0.164398 0.000000
vn -0.986394 -0.164398 0.000000
vn -0.986394 -0.164398 0.000000
vn 0.986394 -0.164399 0.000000
vn 0.986394 -0.164399 0.000000
vn 0.986394 -0.164399 0.000000
vn 0.986394 -0.164399 0.000000
vn -0.986394 0.000000 0.164399
vn -0.986394 0.000000 0.164399
vn -0.986394 0.000000 0.164399
vn -0.986394 0.000000 0.164399
vn 0.986394 0.000000 0.164399
vn 0.986394 0.000000 0.164399
vn 0.986394 0.000000 0.164399
vn 0.986394 0.000000 0.164399
vn -0.986394 0.000000 0.164399
vn -0.986394 0.000000 0.164399
vn -0.986394 0.000000 0.164399
vn -0.986394 0.000000 0.164399
vn 0.986394 0.000000 0.164399
vn 0.986394 0.000000 0.164399
vn 0.986394 0.000000 0.164399
vn 0.986394 0.000000 0.164399
vn -0.986394 0.000000 0.164399
vn -0.986394 0.000000 0.164399
vn -0.986394 0.000000 0.164399
vn -0.986394 0.000000 0.164399
vn 0.986394 0.000000 0.164399
vn 0.986394 0.000000 0.164399
vn 0.986394 0.000000 0.164399
vn 0.986394 0.000000 0.164399
vn -0.986394 0.000000 0.164399
vn -0.986394 0.000000 0.164399
vn -0.986394 0.000000 0.164399
vn -0.986394 0.000000 0.164399
vn 0.986394 0.000000 0.164399
vn 0.986394 0.000000 0.164399
vn 0.986394 0.000000 0.164399
vn 0.986394 0.000000 0.164399
vn -0.986394 0.000000 0.164399
vn -0.986394 0.000000 0.164399
vn -0.986394 0.000000 0.164399
vn -0.986394 0.000000 0.164399
vn 0.986394 0.000000 0.164399
vn 0.986394 0.000000 0.164399
vn 0.986394 0.000000 0.164399
vn 0.986394 0.000000 0.164399
vn -0.986394 0.000000 0.164399
vn -0.986394 0.000000 0.164399
vn -0.986394 0.000000 0.164399
vn -0.986394 0.000000 0.164399
vn 0.986394 0.000000 0.164399
vn 0.986394 0.000000 0.164399
vn 0.986394 0.000000 0.164399
vn 0.986394 0.000000 0.164399
vn -0.986394 0.164399 0.000000
vn -0.986394 0.164399 0.000000
vn -0.986394 0.164399 0.000000
vn -0.986394 0.164399 0.000000
vn 0.986394 0.164399 0.000000
vn 0.986394 0.164399 0.000000
vn 0.986394 0.164399 0.000000
vn 0.986394 0.164399 0.000000
vn -0.986394 0.164399 0.000000
vn -0.986394 0.164399 0.000000
vn -0.986394 0.164399 0.000000
vn -0.986394 0.164399 0.000000
vn 0.986394 0.164399 0.000000
vn 0.986394 0.164399 0.000000
vn 0.986394 0.164399 0.000000
vn 0.986394 0.164399 0.000000
vn -0.986394 0.164399 0.000000
vn -0.986394 0.164399 0.000000
vn -0.986394 0.164399 0.000000
vn -0.986394 0.164399 0.000000
vn 0.986394 0.164399 0.000000
vn 0.986394 0.164399 0.000000
vn 0.986394 0.164399 0.000000
vn 0.986394 0.164399 0.000000
vn -0.986394 0.164399 0.000000
vn -0.986394 0.164399 0.000000
vn -0.986394 0.164399 0.000000
vn -0.986394 0.164399 0.000000
vn 0.986394 0.164399 0.000000
vn 0.986394 0.164399 0.000000
vn 0.986394 0.164399 0.000000
vn 0.986394 0.164399 0.000000
vn -0.986394 0.164399 0.000000
vn -0.986394 0.164399 0.000000
vn -0.986394 0.164399 0.000000
vn -0.986394 0.164399 0.000000
vn 0.986394 0.164399 0.000000
vn 0.986394 0.164399 0.000000
vn 0.986394 0.164399 0.000000
vn 0.986394 0.164399 0.000000
vn -0.986394 0.164398 0.000000
vn -0.986394 0.164399 0.000000
vn -0.986394 0.164398 0.000000
vn -0.986394 0.164399 0.000000
vn 0.986394 0.164399 0.000000
vn 0.986394 0.164399 0.000000
vn 0.986394 0.164399 0.000000
vn 0.986394 0.164399 0.000000
vn 0.000000 0.000000 -1.000000
vn 0.000000 0.000000 -1.000000
vn 0.000000 0.000000 -1.000000
vn 0.000000 0.000000 -1.000000
vn 0.000000 0.000000 -1.000000
vn 0.000000 0.000000 -1.000000
vn 0.000000 0.000000 -1.000000
vn 0.000000 0.000000 -1.000000
vn 0.000000 0.000000 -1.000000
vn 0.000000 0.000000 -1.000000
vn 0.000000 0.000000 -1.000000
vn 0.000000 0.000000 -1.000000
vn 0.000000 0.000000 -1.000000
vn 0.000000 0.000000 -1.000000
vn 0.000000 0.000000 -1.000000
vn 0.000000 0.000000 -1.000000
vn 0.000000 0.000000 -1.000000
vn 0.000000 0.000000 -1.000000
vn 0.000000 0.000000 -1.000000
vn 0.000000 0.000000 -1.000000
vn 0.000000 -1.000000 0.000000
vn 0.000000 -1.000000 0.000000
vn 0.000000 -1.000000 0.000000
vn 0.000000 -1.000000 0.000000
vn 0.000000 -1.000000 0.000000
vn 0.000000 -1.000000 0.000000
vn 0.000000 -1.000000 0.000000
vn 0.000000 -1.000000 0.000000
vn 0.000000 -1.000000 0.000000
vn 0.000000 -1.000000 0.000000
vn 0.000000 -1.000000 0.000000
vn 0.000000 -1.000000 0.000000
vn 0.000000 -1.000000 0.000000
vn 0.000000 -1.000000 0.000000
vn 0.000000 -1.000000 0.000000
vn 0.000000 -1.000000 0.000000
vn 0.000000 -1.000000 0.000000
vn 0.000000 -1.000000 0.000000
vn 0.000000 -1.000000 0.000000
vn 0.000000 -1.000000 0.000000
vn 0.000000 -1.000000 0.000000
vn 0.000000 -1.000000 0.000000
vn 0.000000 -1.000000 0.000000
vn 0.000000 -1.000000 0.000000
vn 0.000000 0.000000 1.000000
vn 0.000000 0.000000 1.000000
vn 0.000000 0.000000 1.000000
vn 0.000000 0.000000 1.000000
vn 0.000000 0.000000 1.000000
vn 0.000000 0.000000 1.000000
vn 0.000000 0.000000 1.000000
vn 0.000000 0.000000 1.000000
vn 0.000000 0.000000 1.000000
vn 0.000000 0.000000 1.000000
vn 0.000000 0.000000 1.000000
vn 0.000000 0.000000 1.000000
vn 0.000000 0.000000 1.000000
vn 0.000000 0.000000 1.000000
vn 0.000000 0.000000 1.000000
vn 0.000000 0.000000 1.000000
vn 0.000000 0.000000 1.000000
vn 0.000000 0.000000 1.000000
vn 0.000000 0.000000 1.000000
vn 0.000000 0.000000 1.000000
vn 0.000000 0.000000 1.000000
vn 0.000000 0.000000 1.000000
vn 0.000000 0.000000 1.000000
vn 0.000000 0.000000 1.000000
vn 0.000000 1.000000 0.000000
vn 0.000000 1.000000 0.000000
vn 0.000000 1.000000 0.000000
vn 0.000000 1.000000 0.000000
vn 0.000000 1.000000 0.000000
vn 0.000000 1.000000 0.000000
vn 0.000000 1.000000 0.000000
vn 0.000000 1.000000 0.000000
vn 0.000000 1.000000 0.000000
vn 0.000000 1.000000 0.000000
vn 0.000000 1.000000 0.000000
vn 0.000000 1.000000 0.000000
vn 0.000000 1.000000 0.000000
vn 0.000000 1.000000 0.000000
vn 0.000000 1.000000 0.000000
vn 0.000000 1.000000 0.000000
vn 0.000000 1.000000 0.000000
vn 0.000000 1.000000 0.000000
vn 0.000000 1.000000 0.000000
vn 0.000000 1.000000 0.000000
vn 0.000000 1.000000 0.000000
vn 0.000000 1.000000 0.000000
vn 0.000000 1.000000 0.000000
vn 0.000000 1.000000 0.000000
vn 0.000000 0.000000 -1.000000
vn 0.000000 0.000000 -1.000000
vn 0.000000 0.000000 -1.000000
vn 0.000000 0.000000 -1.000000
s 1
g pCube7
usemtl initialShadingGroup
f 1/153/1 2/154/2 4/155/3 3/156/4
f 3/156/4 4/155/3 6/157/5 5/158/6
f 5/158/6 6/157/5 8/159/7 7/160/8
f 7/160/8 8/159/7 10/161/9 9/162/10
f 9/162/10 10/161/9 12/163/11 11/164/12
f 11/164/12 12/163/11 14/165/13 13/166/14
s 2
f 13/97/15 14/98/16 16/99/17 15/100/18
f 15/100/18 16/99/17 18/101/19 17/102/20
f 17/102/20 18/101/19 20/103/21 19/104/22
f 19/104/22 20/103/21 22/105/23 21/106/24
f 21/106/24 22/105/23 24/107/25 23/108/26
f 23/108/26 24/107/25 26/109/27 25/110/28
s 3
f 25/167/29 26/168/30 28/169/31 27/170/32
f 27/170/32 28/169/31 30/171/33 29/172/34
f 29/172/34 30/171/33 32/173/35 31/174/36
f 31/174/36 32/173/35 34/175/37 33/176/38
f 33/176/38 34/175/37 36/177/39 35/178/40
f 35/178/40 36/177/39 38/179/41 37/180/42
s 4
f 37/111/43 38/112/44 40/113/45 39/114/46
f 39/114/46 40/113/45 42/115/47 41/116/48
f 41/116/48 42/115/47 44/117/49 43/118/50
f 43/118/50 44/117/49 46/119/51 45/120/52
f 45/120/52 46/119/51 48/121/53 47/122/54
f 47/122/54 48/121/53 2/123/55 1/124/56
s off
f 1/1/57 3/2/58 50/3/59 49/4/60
f 4/49/61 2/50/62 51/51/63 52/52/64
f 3/2/65 5/5/66 53/6/67 50/3/68
f 6/55/69 4/49/70 52/52/71 54/56/72
f 5/5/73 7/9/74 55/10/75 53/6/76
f 8/59/77 6/55/78 54/56/79 56/60/80
f 7/9/81 9/13/82 57/14/83 55/10/84
f 10/63/85 8/59/86 56/60/87 58/64/88
f 9/13/89 11/17/90 59/18/91 57/14/92
f 12/67/93 10/63/94 58/64/95 60/68/96
f 11/17/97 13/21/98 61/22/99 59/18/100
f 14/71/101 12/67/102 60/68/103 62/72/104
f 13/21/105 15/25/106 63/26/107 61/22/108
f 16/75/109 14/71/110 62/72/111 64/76/112
f 15/25/113 17/29/114 65/30/115 63/26/116
f 18/79/117 16/75/118 64/76/119 66/80/120
f 17/29/121 19/33/122 67/34/123 65/30/124
f 20/83/125 18/79/126 66/80/127 68/84/128
f 19/33/129 21/37/130 69/38/131 67/34/132
f 22/87/133 20/83/134 68/84/135 70/88/136
f 21/37/137 23/41/138 71/42/139 69/38/140
f 24/91/141 22/87/142 70/88/143 72/92/144
f 23/41/145 25/45/146 73/46/147 71/42/148
f 26/95/149 24/91/150 72/92/151 74/96/152
f 25/45/153 27/47/154 75/48/155 73/46/156
f 28/93/157 26/95/158 74/96/159 76/94/160
f 27/47/161 29/43/162 77/44/163 75/48/164
f 30/89/165 28/93/166 76/94/167 78/90/168
f 29/43/169 31/39/170 79/40/171 77/44/172
f 32/85/173 30/89/174 78/90/175 80/86/176
f 31/39/177 33/35/178 81/36/179 79/40/180
f 34/81/181 32/85/182 80/86/183 82/82/184
f 33/35/185 35/31/186 83/32/187 81/36/188
f 36/77/189 34/81/190 82/82/191 84/78/192
f 35/31/193 37/27/194 85/28/195 83/32/196
f 38/73/197 36/77/198 84/78/199 86/74/200
f 37/27/201 39/23/202 87/24/203 85/28/204
f 40/69/205 38/73/206 86/74/207 88/70/208
f 39/23/209 41/19/210 89/20/211 87/24/212
f 42/65/213 40/69/214 88/70/215 90/66/216
f 41/19/217 43/15/218 91/16/219 89/20/220
f 44/61/221 42/65/222 90/66/223 92/62/224
f 43/15/225 45/11/226 93/12/227 91/16/228
f 46/57/229 44/61/230 92/62/231 94/58/232
f 45/11/233 47/7/234 95/8/235 93/12/236
f 48/53/237 46/57/238 94/58/239 96/54/240
f 47/7/241 1/1/242 49/4/243 95/8/244
f 2/50/245 48/53/246 96/54/247 51/51/248
f 50/181/249 53/182/250 54/183/251 52/184/252
f 53/182/253 55/185/254 56/186/255 54/183/256
f 55/185/257 57/189/258 58/190/259 56/186/260
f 57/189/261 59/191/262 60/192/263 58/190/264
f 59/191/265 61/193/266 62/194/267 60/192/268
f 61/125/269 63/126/270 64/127/271 62/128/272
f 63/126/273 65/129/274 66/130/275 64/127/276
f 65/129/277 67/131/278 68/132/279 66/130/280
f 67/131/281 69/133/282 70/134/283 68/132/284
f 69/133/285 71/135/286 72/136/287 70/134/288
f 71/135/289 73/137/290 74/138/291 72/136/292
f 73/195/293 75/196/294 76/197/295 74/198/296
f 75/196/297 77/199/298 78/200/299 76/197/300
f 77/199/301 79/201/302 80/202/303 78/200/304
f 79/201/305 81/203/306 82/204/307 80/202/308
f 81/203/309 83/205/310 84/206/311 82/204/312
f 83/205/313 85/207/314 86/208/315 84/206/316
f 85/139/317 87/140/318 88/141/319 86/142/320
f 87/140/321 89/143/322 90/144/323 88/141/324
f 89/143/325 91/145/326 92/146/327 90/144/328
f 91/145/329 93/147/330 94/148/331 92/146/332
f 93/147/333 95/149/334 96/150/335 94/148/336
f 95/149/337 49/151/338 51/152/339 96/150/340
f 49/187/341 50/181/342 52/184/343 51/188/344
